<svg width="256" height="255" viewBox="0 0 256 255" fill="none" xmlns="http://www.w3.org/2000/svg">
<path d="M0 40C0 17.9086 17.9086 0 40 0H216C238.091 0 256 17.9086 256 40V215C256 237.091 238.091 255 216 255H40C17.9086 255 0 237.091 0 215V40Z" fill="url(#paint0_angular_1_9)"/>
<path d="M209 140C209 175.899 172.735 205 128 205C83.2649 205 47 175.899 47 140C47 104.101 83.2649 75 128 75C172.735 75 209 104.101 209 140Z" fill="#D9D9D9"/>
<path d="M101.847 99.5394C110.938 93.0956 109.223 79.1298 98.843 75.0766L73.7627 65.2832C63.892 61.4289 53.4834 69.5129 54.7748 80.0305L57.889 105.394C59.1804 115.911 71.2355 121.237 79.8806 115.109L101.847 99.5394Z" fill="#D9D9D9"/>
<path d="M154.284 99.5394C145.193 93.0956 146.908 79.1298 157.288 75.0766L182.368 65.2832C192.239 61.4289 202.648 69.5129 201.356 80.0305L198.242 105.394C196.951 115.911 184.896 121.237 176.251 115.109L154.284 99.5394Z" fill="#D9D9D9"/>
<defs>
<radialGradient id="paint0_angular_1_9" cx="0" cy="0" r="1" gradientUnits="userSpaceOnUse" gradientTransform="translate(128 127.5) rotate(90) scale(127.5 128)">
<stop offset="0.135" stop-color="#AD65E6"/>
<stop offset="0.63" stop-color="#3095F2"/>
</radialGradient>
</defs>
</svg>
